<?xml version="1.0" encoding="UTF-8"?>
<svg version="1.1" xmlns="http://www.w3.org/2000/svg" width="512" height="512">
<path d="M0 0 C168.96 0 337.92 0 512 0 C512 168.96 512 337.92 512 512 C343.04 512 174.08 512 0 512 C0 343.04 0 174.08 0 0 Z " fill="#FEFEFE" transform="translate(0,0)"/>
<path d="M0 0 C9.18393562 3.53020206 15.50004105 9.90820805 22 17 C22.62519531 17.65871094 23.25039063 18.31742188 23.89453125 18.99609375 C33.49961941 29.45596727 40.66819376 41.37176074 47 54 C46.21287852 50.62392352 45.41948969 47.24934946 44.625 43.875 C44.40328125 42.92367187 44.1815625 41.97234375 43.953125 40.9921875 C42.83085378 36.23903881 41.61064897 31.616235 40 27 C38.47322006 19.67145631 37.11111566 9.99067761 40.3515625 3.14453125 C42 1 42 1 44.625 -0.1875 C51.06077767 0.1700432 55.99416081 4.64316377 60.25 9.25 C69.35899601 20.81817399 73.17999967 36.65731079 75 51 C75.04487549 50.40574219 75.08975098 49.81148437 75.13598633 49.19921875 C75.34939403 46.46504887 75.58082418 43.73268018 75.8125 41 C75.91788086 39.59814453 75.91788086 39.59814453 76.02539062 38.16796875 C76.59070729 31.7007461 77.19580433 24.80419567 82 20 C85.25 19.875 85.25 19.875 89 21 C91.49547628 23.37748686 93.26761058 26.03218006 95 29 C95.33112793 29.53544434 95.66225586 30.07088867 96.00341797 30.62255859 C99.42034824 36.64495706 100.05775404 42.69155736 100.75 49.5 C100.87503906 50.60859375 101.00007813 51.7171875 101.12890625 52.859375 C101.4328767 55.57172666 101.72286041 58.28479832 102 61 C102.75023437 60.17628906 103.50046875 59.35257813 104.2734375 58.50390625 C107 56 107 56 110.625 55.9375 C114.2639395 57.08309207 115.25035189 57.69510913 117 61 C119.36389869 68.09169608 117.59173309 75.18111201 115.9375 82.25 C115.60250488 83.69028564 115.60250488 83.69028564 115.26074219 85.15966797 C111.13497095 102.24934215 104.4723309 118.13182035 97 134 C98.3096875 133.96519531 99.619375 133.93039063 100.96875 133.89453125 C134.18213042 133.28431975 177.7773141 137.69292091 207 155 C208.1574707 157.09326172 208.1574707 157.09326172 209 159 C208.38930664 158.91959473 207.77861328 158.83918945 207.14941406 158.75634766 C182.57746827 155.5629969 158.26947942 153.82210949 133.5 153.75 C132.57012268 153.74473297 131.64024536 153.73946594 130.68218994 153.73403931 C112.72016799 152.8131889 112.72016799 152.8131889 96.625 159 C89.80030982 165.81047208 84.99242164 174.37213916 84.765625 184.0703125 C84.80469411 189.86921723 86.11238121 194.54403704 88.125 199.9375 C88.76931472 201.7686929 89.41118132 203.60074874 90.05078125 205.43359375 C90.37643066 206.3551123 90.70208008 207.27663086 91.03759766 208.22607422 C103.04556397 242.83655449 103.35571667 275.29351239 87.70703125 308.765625 C78.6897364 326.43000317 65.7145536 342.00381965 50 354 C49.12601563 354.67804688 48.25203125 355.35609375 47.3515625 356.0546875 C39.43972174 362.01757042 30.97545886 366.75863599 22.28515625 371.47265625 C16.18627209 374.62783417 16.18627209 374.62783417 11 379 C10.56212216 382.97856745 10.56142022 385.25738061 12.6171875 388.73828125 C13.36226562 389.58777344 14.10734375 390.43726563 14.875 391.3125 C16.10089844 392.71822266 16.10089844 392.71822266 17.3515625 394.15234375 C21.45079274 398.55992317 25.68057856 402.80930304 30 407 C30.75796875 407.87914062 31.5159375 408.75828125 32.296875 409.6640625 C38.99212749 415.44984427 48.67111716 414.360839 57.04296875 414.47851562 C63.7529015 414.66772281 68.4896036 415.3539065 73.3125 420.4375 C74.83211962 422.74507054 75.59986624 424.29909712 76 427 C75.04843018 426.83766876 74.09686035 426.67533752 73.11645508 426.50808716 C68.45541159 425.84684576 63.83698314 425.86002107 59.13671875 425.87060547 C58.17158356 425.86885315 57.20644836 425.86710083 56.21206665 425.86529541 C53.03719255 425.86091166 49.86237462 425.86380264 46.6875 425.8671875 C44.47224924 425.86651346 42.25699855 425.8655426 40.04174805 425.86428833 C35.40510349 425.86281607 30.76847824 425.86495078 26.13183594 425.86962891 C20.19700077 425.87532589 14.26221083 425.87204437 8.32737732 425.86605644 C3.75483867 425.86243812 -0.8176893 425.86359527 -5.39022827 425.86618423 C-7.57823695 425.86684998 -9.76624661 425.8660374 -11.95425415 425.86370468 C-15.01510169 425.86115732 -18.0758766 425.86504814 -21.13671875 425.87060547 C-22.03562836 425.86858124 -22.93453796 425.86655701 -23.86068726 425.86447144 C-28.68055466 425.88063367 -33.24695356 426.18916312 -38 427 C-36.76470063 422.05880254 -35.33811434 419.72393226 -31 417 C-27.03705918 415.93677197 -23.27621958 415.8961998 -19.1875 415.9375 C-18.02605469 415.94652344 -16.86460937 415.95554687 -15.66796875 415.96484375 C-14.34732422 415.98224609 -14.34732422 415.98224609 -13 416 C-13.11133001 408.89343416 -16.36320348 405.74339051 -21.25 400.875 C-21.91902344 400.18535156 -22.58804688 399.49570312 -23.27734375 398.78515625 C-24.58284398 397.44374835 -25.90149596 396.11499145 -27.23413086 394.80053711 C-29 393 -29 393 -31.39453125 389.99609375 C-35.33562401 386.97675582 -38.66390132 387.68849095 -43.4375 388.1875 C-45.22243076 388.32840699 -47.00759305 388.46641001 -48.79296875 388.6015625 C-49.67130371 388.67407227 -50.54963867 388.74658203 -51.45458984 388.82128906 C-56.96366484 389.20807622 -62.48093787 389.08223768 -68 389 C-68.27295898 389.5686377 -68.54591797 390.13727539 -68.82714844 390.72314453 C-70.02676548 393.0519598 -71.35346178 395.22359135 -72.765625 397.4296875 C-73.31895508 398.2964209 -73.87228516 399.1631543 -74.44238281 400.05615234 C-75.03889648 400.98637207 -75.63541016 401.9165918 -76.25 402.875 C-77.52086282 404.8645645 -78.79169529 406.85414838 -80.0625 408.84375 C-81.04089844 410.37322266 -81.04089844 410.37322266 -82.0390625 411.93359375 C-85.11510877 416.74374579 -88.18339254 421.55882654 -91.25 426.375 C-91.83249512 427.28926758 -92.41499023 428.20353516 -93.01513672 429.14550781 C-96.49899462 434.62000095 -99.94962563 440.11377194 -103.375 445.625 C-107.45336081 452.1734809 -111.64502429 458.63095844 -116 465 C-116.64582031 465.98097656 -117.29164062 466.96195312 -117.95703125 467.97265625 C-123.02220626 475.39558531 -128.33450063 480.8241083 -137.125 483.4375 C-141.72742532 484.105594 -145.77563789 484.11218106 -150 482 C-150 480.68 -150 479.36 -150 478 C-150.495 478.474375 -150.99 478.94875 -151.5 479.4375 C-154.89588826 481.55993017 -157.99733966 482.25426736 -162 482 C-164.5 480.5 -164.5 480.5 -166 478 C-167.59226905 470.35710856 -162.93322455 463.49939797 -158.87792969 457.27880859 C-157.16604871 454.75423759 -155.41928682 452.25560333 -153.66064453 449.76342773 C-149.39821086 443.68907123 -145.46568719 437.43488765 -141.5625 431.125 C-135.25305241 420.9350486 -128.72566141 410.91941124 -122 401 C-122.71285156 401.2165625 -123.42570312 401.433125 -124.16015625 401.65625 C-129.57205952 403.22956239 -134.35552958 404.60047558 -140 404 C-140.66 403.34 -141.32 402.68 -142 402 C-140.84659466 388.58283587 -128.62763986 374.18522771 -120.83203125 363.73046875 C-115.50115831 356.53100073 -111.16925452 350.35046607 -108.9609375 341.5390625 C-99.02713538 304.95359615 -77.3179522 266.97122745 -51.45019531 239.55175781 C-49.96670647 237.96437481 -48.50827711 236.35696725 -47.0546875 234.7421875 C-38.86736181 225.67434568 -30.32431932 217.2757487 -20.625 209.8125 C-10.60052844 201.89252488 -6.01517208 191.44686252 -4 179 C-3.71079007 175.18929508 -3.63681265 171.38266372 -3.5625 167.5625 C-3.32967675 159.88644175 -2.85305085 152.38802556 -1.5625 144.8125 C-1.37892944 143.72787476 -1.37892944 143.72787476 -1.19165039 142.62133789 C-0.50306242 138.87912886 0.44220138 135.47301424 2 132 C0.44732422 132.09474609 0.44732422 132.09474609 -1.13671875 132.19140625 C-7.54056731 132.18156499 -13.63045665 130.46454979 -19.8125 128.9375 C-20.45151245 128.78171478 -21.0905249 128.62592957 -21.74890137 128.46542358 C-64.91573443 117.89358263 -64.91573443 117.89358263 -74 104 C-74.59731259 101.03034212 -74.40541841 99.09131539 -74 96 C-72.18836733 93.32568511 -71.12238923 93.04079641 -68 92 C-60.02032823 91.32198867 -52.6928326 92.50012921 -44.9140625 94.19921875 C-38.65361517 95.48004879 -32.3421674 96.23534152 -26 97 C-26.61294922 96.79955078 -27.22589844 96.59910156 -27.85742188 96.39257812 C-67.97431314 83.16030509 -67.97431314 83.16030509 -75.5 71.5625 C-77.14310629 67.66012257 -77.56363013 65.18696668 -77 61 C-75.18842703 58.37321919 -72.90931204 57.22075412 -70 56 C-60.60683102 54.89222861 -52.27004367 56.8595666 -43.375 59.6875 C-42.23804688 60.02716797 -41.10109375 60.36683594 -39.9296875 60.71679688 C-32.67071434 62.94360344 -25.82588054 65.67830101 -19 69 C-18.67 68.67 -18.34 68.34 -18 68 C-18.89460937 67.3709375 -19.78921875 66.741875 -20.7109375 66.09375 C-27.99684461 60.94629606 -35.12368629 55.69032929 -42 50 C-42.71929687 49.43925781 -43.43859375 48.87851563 -44.1796875 48.30078125 C-50.4610509 43.21643238 -55.39489911 37.23570624 -56.5625 29.0625 C-55.94819924 25.71797361 -55.67439884 24.95590363 -53 23 C-36.0130577 20.02852321 -17.88629592 31.4219134 -4.33105469 40.7434082 C1.46134337 44.85901737 6.83201698 49.31248657 12.01171875 54.1875 C14.07099988 56.15610321 14.07099988 56.15610321 17 58 C16.27296875 57.11441406 15.5459375 56.22882813 14.796875 55.31640625 C9.15606667 48.3882176 3.71072509 41.36611749 -1.4375 34.0625 C-1.92057617 33.37808838 -2.40365234 32.69367676 -2.90136719 31.98852539 C-14.89198377 14.81182151 -14.89198377 14.81182151 -14 5 C-10.75031348 -1.79479908 -6.93374585 -1.62235186 0 0 Z " fill="#EA8B28" transform="translate(238,16)"/>
<path d="M0 0 C1 2 1 2 0.8125 5.25 C1.03652222 9.73044449 2.24071324 11.53118236 5 15 C5.680625 15.86625 5.680625 15.86625 6.375 16.75 C13.09261791 21.9173984 23.40926997 20.72059845 31.35253906 19.69677734 C36.26292037 18.93619656 41.13345461 18.00070946 46 17 C46.43828125 17.64066406 46.8765625 18.28132813 47.328125 18.94140625 C54.1162368 28.19917661 62.77231007 33.96573898 74.01953125 36.5625 C86.09823403 38.33552059 95.77945324 36.93848005 106.4375 31.125 C110.21681483 27.99093404 112.45181944 24.64454167 114 20 C114.07051114 17.26134713 114.09357765 14.54972412 114.0625 11.8125 C114.05573242 10.68811523 114.05573242 10.68811523 114.04882812 9.54101562 C114.03706354 7.69397617 114.01912865 5.84697787 114 4 C119.72663559 12.58995339 118.86571925 25.30365477 116.97167969 35.01904297 C113.33908164 51.71921681 104.72344252 66.21272488 93.1484375 78.640625 C90.9664014 80.97414889 90.9664014 80.97414889 89.0390625 83.53125 C85.31624915 88.03856424 80.58065391 91.40386244 76 95 C74.63681641 96.08667969 74.63681641 96.08667969 73.24609375 97.1953125 C52.61195164 113.20901389 28.77028437 124.8381641 4.80859375 134.94140625 C-11.4358554 141.85052069 -18.13458022 154.47364419 -27.15185547 169.03027344 C-30.14376247 173.8378767 -33.2002125 178.60399572 -36.25 183.375 C-40.3264312 189.77044008 -44.37153843 196.18366325 -48.375 202.625 C-52.45336081 209.1734809 -56.64502429 215.63095844 -61 222 C-61.64582031 222.98097656 -62.29164062 223.96195313 -62.95703125 224.97265625 C-68.02220626 232.39558531 -73.33450063 237.8241083 -82.125 240.4375 C-86.72742532 241.105594 -90.77563789 241.11218106 -95 239 C-95 237.68 -95 236.36 -95 235 C-95.495 235.474375 -95.99 235.94875 -96.5 236.4375 C-99.89588826 238.55993017 -102.99733966 239.25426736 -107 239 C-109.5 237.5 -109.5 237.5 -111 235 C-112.59226905 227.35710856 -107.93322455 220.49939797 -103.87792969 214.27880859 C-102.16604871 211.75423759 -100.41928682 209.25560333 -98.66064453 206.76342773 C-94.39821086 200.68907123 -90.46568719 194.43488765 -86.5625 188.125 C-80.25305241 177.9350486 -73.72566141 167.91941124 -67 158 C-67.71285156 158.2165625 -68.42570312 158.433125 -69.16015625 158.65625 C-74.57205952 160.22956239 -79.35552958 161.60047558 -85 161 C-85.66 160.34 -86.32 159.68 -87 159 C-85.84659466 145.58283587 -73.62763986 131.18522771 -65.83203125 120.73046875 C-60.50115831 113.53100073 -56.16925452 107.35046607 -53.9609375 98.5390625 C-44.45830949 63.54157887 -23.95784844 27.02936747 0 0 Z " fill="#2D3129" transform="translate(183,259)"/>
<path d="M0 0 C9.18393562 3.53020206 15.50004105 9.90820805 22 17 C22.93779297 17.98806641 22.93779297 17.98806641 23.89453125 18.99609375 C33.49961941 29.45596727 40.66819376 41.37176074 47 54 C46.21287852 50.62392352 45.41948969 47.24934946 44.625 43.875 C44.40328125 42.92367187 44.1815625 41.97234375 43.953125 40.9921875 C42.83085378 36.23903881 41.61064897 31.616235 40 27 C38.47322006 19.67145631 37.11111566 9.99067761 40.3515625 3.14453125 C42 1 42 1 44.625 -0.1875 C51.06077767 0.1700432 55.99416081 4.64316377 60.25 9.25 C69.35899601 20.81817399 73.17999967 36.65731079 75 51 C75.04487549 50.40574219 75.08975098 49.81148437 75.13598633 49.19921875 C75.34939403 46.46504887 75.58082418 43.73268018 75.8125 41 C75.91788086 39.59814453 75.91788086 39.59814453 76.02539062 38.16796875 C76.59070729 31.7007461 77.19580433 24.80419567 82 20 C85.25 19.875 85.25 19.875 89 21 C91.49547628 23.37748686 93.26761058 26.03218006 95 29 C95.33112793 29.53544434 95.66225586 30.07088867 96.00341797 30.62255859 C99.42034824 36.64495706 100.05775404 42.69155736 100.75 49.5 C100.87503906 50.60859375 101.00007812 51.7171875 101.12890625 52.859375 C101.4328767 55.57172666 101.72286041 58.28479832 102 61 C102.75023437 60.17628906 103.50046875 59.35257813 104.2734375 58.50390625 C107 56 107 56 110.625 55.9375 C114.2639395 57.08309207 115.25035189 57.69510913 117 61 C119.36389869 68.09169608 117.59173309 75.18111201 115.9375 82.25 C115.60250488 83.69028564 115.60250488 83.69028564 115.26074219 85.15966797 C111.13497095 102.24934215 104.4723309 118.13182035 97 134 C98.3096875 133.96519531 99.619375 133.93039063 100.96875 133.89453125 C134.18213042 133.28431975 177.7773141 137.69292091 207 155 C208.1574707 157.09326172 208.1574707 157.09326172 209 159 C208.38930664 158.91959473 207.77861328 158.83918945 207.14941406 158.75634766 C182.62022289 155.56855325 158.35154535 153.82236447 133.625 153.75 C132.70366272 153.74473297 131.78232544 153.73946594 130.83306885 153.73403931 C120.94567634 153.69023901 111.59254213 154.06748047 101.82861328 155.6796875 C97.96965646 156.11667622 95.69272243 155.60429954 92.125 154.125 C91.13757813 153.73570312 90.15015625 153.34640625 89.1328125 152.9453125 C88.07707031 152.47738281 88.07707031 152.47738281 87 152 C87 146.88049671 88.61935671 145.69512174 92 142 C92.56847656 141.55914062 93.13695312 141.11828125 93.72265625 140.6640625 C95.27666735 139.0096149 95.27666735 139.0096149 94.8828125 136.43359375 C92.22686054 125.93300016 87.13897782 117.11468679 78 111 C64.26023658 102.8940441 51.35322597 100.616522 35.45703125 103.68359375 C32.81306447 104.60306849 30.45716306 105.66313671 28 107 C26.73542969 107.63615234 26.73542969 107.63615234 25.4453125 108.28515625 C16.41619478 113.21137701 9.48145981 120.03708039 4.875 129.25 C2.39160788 131.56783265 0.08956813 131.87578827 -3.23925781 132.1015625 C-8.93725664 131.89194387 -14.37250319 130.40583399 -19.875 129 C-21.15407227 128.68184326 -22.43314453 128.36368652 -23.75097656 128.03588867 C-65.13638511 117.5561169 -65.13638511 117.5561169 -74 104 C-74.59731259 101.03034212 -74.40541841 99.09131539 -74 96 C-72.18836733 93.32568511 -71.12238923 93.04079641 -68 92 C-60.02032823 91.32198867 -52.6928326 92.50012921 -44.9140625 94.19921875 C-38.65361517 95.48004879 -32.3421674 96.23534152 -26 97 C-26.61294922 96.79955078 -27.22589844 96.59910156 -27.85742188 96.39257812 C-67.97431314 83.16030509 -67.97431314 83.16030509 -75.5 71.5625 C-77.14310629 67.66012257 -77.56363013 65.18696668 -77 61 C-75.18842703 58.37321919 -72.90931204 57.22075412 -70 56 C-60.60683102 54.89222861 -52.27004367 56.8595666 -43.375 59.6875 C-42.23804688 60.02716797 -41.10109375 60.36683594 -39.9296875 60.71679688 C-32.67071434 62.94360344 -25.82588054 65.67830101 -19 69 C-18.67 68.67 -18.34 68.34 -18 68 C-19.34191406 67.05640625 -19.34191406 67.05640625 -20.7109375 66.09375 C-27.99684461 60.94629606 -35.12368629 55.69032929 -42 50 C-42.71929687 49.43925781 -43.43859375 48.87851563 -44.1796875 48.30078125 C-50.4610509 43.21643238 -55.39489911 37.23570624 -56.5625 29.0625 C-55.94819924 25.71797361 -55.67439884 24.95590363 -53 23 C-36.0130577 20.02852321 -17.88629592 31.4219134 -4.33105469 40.7434082 C1.46134337 44.85901737 6.83201698 49.31248657 12.01171875 54.1875 C14.07099988 56.15610321 14.07099988 56.15610321 17 58 C16.27296875 57.11441406 15.5459375 56.22882813 14.796875 55.31640625 C9.15606667 48.3882176 3.71072509 41.36611749 -1.4375 34.0625 C-2.16211426 33.03588257 -2.16211426 33.03588257 -2.90136719 31.98852539 C-14.89198377 14.81182151 -14.89198377 14.81182151 -14 5 C-10.75031348 -1.79479908 -6.93374585 -1.62235186 0 0 Z " fill="#E88826" transform="translate(238,16)"/>
<path d="M0 0 C0.92200195 -0.01853027 1.84400391 -0.03706055 2.79394531 -0.05615234 C14.6630244 0.0516715 26.05390146 5.68564972 34.6875 13.75 C41.52624714 21.12226642 44.83861262 28.53422822 45.9375 38.5 C44.9475 38.995 44.9475 38.995 43.9375 39.5 C43.73125 38.365625 43.525 37.23125 43.3125 36.0625 C40.86901958 26.45826447 33.88322279 19.08692785 25.5546875 14.0625 C13.47544823 7.70101976 1.06492987 5.01548106 -12.3125 9.125 C-24.1550033 13.64467879 -33.30998407 20.18011285 -38.9375 31.8125 C-42.17430461 40.36459244 -42.41862918 49.46298783 -43.0625 58.5 C-44.60442614 79.19640241 -48.36875716 93.76827604 -61.0625 110.5 C-60.44431396 110.53963867 -59.82612793 110.57927734 -59.18920898 110.62011719 C-39.05930236 111.97269746 -15.14672778 114.25467407 0.03515625 129.26171875 C5.14960683 135.2793372 9.79474101 141.36273766 9.9375 149.5 C9.99679687 150.428125 10.05609375 151.35625 10.1171875 152.3125 C10.39984087 158.96316764 9.99855736 164.07260558 5.9375 169.5 C-1.10682021 176.70814161 -10.09655415 179.61505459 -20 179.8125 C-31.96559546 179.82562657 -42.74791756 176.14121549 -52.0625 168.5 C-54.65742252 165.65600115 -56.93303934 162.70509266 -59.0625 159.5 C-60.11566406 159.7165625 -61.16882813 159.933125 -62.25390625 160.15625 C-89.06926253 165.43170982 -89.06926253 165.43170982 -98.0625 159.5 C-101.83232429 155.77330872 -104.90336258 152.60857086 -105.3125 147.1875 C-104.82790167 140.03967459 -99.71537561 135.71561017 -95 130.75 C-93.99018066 129.6815686 -93.99018066 129.6815686 -92.95996094 128.59155273 C-86.16794401 121.46578175 -79.02378939 115.0526354 -71.3125 108.9375 C-61.06122225 100.58032294 -56.16347715 90.476844 -54.0625 77.5 C-53.77329007 73.68929508 -53.69931265 69.88266372 -53.625 66.0625 C-53.39217675 58.38644175 -52.91555085 50.88802556 -51.625 43.3125 C-51.50261963 42.5894165 -51.38023926 41.86633301 -51.25415039 41.12133789 C-50.56556242 37.37912886 -49.62029862 33.97301424 -48.0625 30.5 C-49.3825 30.17 -50.7025 29.84 -52.0625 29.5 C-51.30582031 29.42910156 -50.54914063 29.35820312 -49.76953125 29.28515625 C-46.26838757 28.26967302 -45.63613055 27.00304718 -43.75 23.9375 C-37.97269343 15.20928469 -31.3963167 9.25841635 -22.0625 4.5 C-21.30066406 4.08492188 -20.53882813 3.66984375 -19.75390625 3.2421875 C-13.32621193 0.30087458 -6.95780963 0.08694364 0 0 Z " fill="#D96C23" transform="translate(288.0625,117.5)"/>
<path d="M0 0 C0 3.65164411 -0.64227354 3.99991712 -3.08984375 6.5546875 C-7.19210091 11.07613087 -10.3578805 15.94379502 -13.5625 21.125 C-14.78754392 23.0782608 -16.01281085 25.03138175 -17.23828125 26.984375 C-17.85912598 27.97888672 -18.4799707 28.97339844 -19.11962891 29.99804688 C-22.13333855 34.80933924 -25.19422121 39.59036542 -28.25 44.375 C-32.32614175 50.77062697 -36.37153635 57.18365991 -40.375 63.625 C-44.45336081 70.1734809 -48.64502429 76.63095844 -53 83 C-53.64582031 83.98097656 -54.29164062 84.96195312 -54.95703125 85.97265625 C-60.02220626 93.39558531 -65.33450063 98.8241083 -74.125 101.4375 C-78.72742532 102.105594 -82.77563789 102.11218106 -87 100 C-87 98.68 -87 97.36 -87 96 C-87.495 96.474375 -87.99 96.94875 -88.5 97.4375 C-91.89588826 99.55993017 -94.99733966 100.25426736 -99 100 C-101.5 98.5 -101.5 98.5 -103 96 C-104.59226905 88.35710856 -99.93322455 81.49939797 -95.87792969 75.27880859 C-94.16604871 72.75423759 -92.41928682 70.25560333 -90.66064453 67.76342773 C-87.09758739 62.68574654 -83.75490227 57.49958705 -80.48681641 52.22729492 C-79.20023387 50.15312539 -77.90293829 48.08556414 -76.59521484 46.0246582 C-73.62460364 41.33180777 -70.77946291 36.67369277 -68.2890625 31.70703125 C-64.48923674 24.49902529 -61.21744222 19.42863665 -53.28125 16.62109375 C-47.7199237 15.01483429 -42.0790094 13.88145907 -36.40380859 12.75830078 C-30.94895713 11.54306849 -25.75009864 9.70816448 -20.5 7.8125 C-19.58822998 7.49071777 -18.67645996 7.16893555 -17.73706055 6.83740234 C-11.76411525 4.70684774 -5.87227851 2.39290619 0 0 Z " fill="#20271F" transform="translate(175,398)"/>
<path d="M0 0 C3.20163773 1.40957059 5.27445827 3.11171369 7.75 5.5625 C17.14867545 14.07859802 29.22667106 19.56270368 41 24 C37.90825177 27.33999079 34.51330192 29.83069577 30.6875 32.25 C30.0692334 32.64131104 29.4509668 33.03262207 28.81396484 33.43579102 C15.42327786 41.80032436 1.45317308 47.98157053 -13.17431641 53.85742188 C-15.08400606 54.62961365 -16.98727737 55.41784212 -18.88427734 56.22070312 C-20.23126709 56.7843457 -20.23126709 56.7843457 -21.60546875 57.359375 C-22.4049292 57.69936523 -23.20438965 58.03935547 -24.02807617 58.38964844 C-26 59 -26 59 -28 58 C-26.68 57.34 -25.36 56.68 -24 56 C-24 55.34 -24 54.68 -24 54 C-22.6015625 52.6953125 -22.6015625 52.6953125 -20.625 51.125 C-14.12143679 45.60858477 -7.67569745 38.73053514 -4 31 C-4.4139502 31.43570312 -4.82790039 31.87140625 -5.25439453 32.3203125 C-9.50422996 36.69441212 -13.91922563 40.45374944 -18.875 44 C-19.63385498 44.54543457 -20.39270996 45.09086914 -21.17456055 45.65283203 C-31.70850741 53.07783427 -42.84462693 59.5631492 -54 66 C-54.77504883 66.44762695 -55.55009766 66.89525391 -56.34863281 67.35644531 C-64.02593707 71.75229186 -64.02593707 71.75229186 -67 73 C-67.66 72.67 -68.32 72.34 -69 72 C-68.57589844 71.5875 -68.15179688 71.175 -67.71484375 70.75 C-67.12832031 70.1725 -66.54179688 69.595 -65.9375 69 C-65.36902344 68.443125 -64.80054687 67.88625 -64.21484375 67.3125 C-62.42300515 65.44165617 -60.75350208 63.54350237 -59.0769043 61.57250977 C-54.66632687 56.52186704 -49.91807719 51.82030189 -45.15291977 47.10832024 C-43.51830575 45.49135481 -41.88748114 43.87065077 -40.25759888 42.24891663 C-35.62868908 37.644242 -30.99403602 33.04538008 -26.35498047 28.45092773 C-23.50265259 25.62550732 -20.65531891 22.79513114 -17.8109169 19.96173286 C-16.73403059 18.89101272 -15.65525612 17.82218784 -14.57448959 16.75538445 C-9.22822346 11.47763779 -4.09145162 6.34014183 0 0 Z " fill="#E78523" transform="translate(178,333)"/>
<path d="M0 0 C0.66 0.33 1.32 0.66 2 1 C1.175 1.515625 0.35 2.03125 -0.5 2.5625 C-3.32973169 4.81129864 -3.32973169 4.81129864 -3.3984375 8.3203125 C-2.93284705 12.6201772 -1.94675025 14.09531416 0.875 17.3125 C1.69226563 18.24964844 2.50953125 19.18679688 3.3515625 20.15234375 C7.45079274 24.55992317 11.68057856 28.80930304 16 33 C16.75796875 33.87914062 17.5159375 34.75828125 18.296875 35.6640625 C24.99212749 41.44984427 34.67111716 40.360839 43.04296875 40.47851562 C49.7529015 40.66772281 54.4896036 41.3539065 59.3125 46.4375 C60.83211962 48.74507054 61.59986624 50.29909712 62 53 C60.57264526 52.75650314 60.57264526 52.75650314 59.11645508 52.50808716 C54.45541159 51.84684576 49.83698314 51.86002107 45.13671875 51.87060547 C44.17158356 51.86885315 43.20644836 51.86710083 42.21206665 51.86529541 C39.03719255 51.86091166 35.86237462 51.86380264 32.6875 51.8671875 C30.47224924 51.86651346 28.25699855 51.8655426 26.04174805 51.86428833 C21.40510349 51.86281607 16.76847824 51.86495078 12.13183594 51.86962891 C6.19700077 51.87532589 0.26221083 51.87204437 -5.67262268 51.86605644 C-10.24516133 51.86243812 -14.8176893 51.86359527 -19.39022827 51.86618423 C-21.57823695 51.86684998 -23.76624661 51.8660374 -25.95425415 51.86370468 C-29.01510169 51.86115732 -32.0758766 51.86504814 -35.13671875 51.87060547 C-36.03562836 51.86858124 -36.93453796 51.86655701 -37.86068726 51.86447144 C-42.68055466 51.88063367 -47.24695356 52.18916312 -52 53 C-50.76470063 48.05880254 -49.33811434 45.72393226 -45 43 C-41.03705918 41.93677197 -37.27621958 41.8961998 -33.1875 41.9375 C-32.02605469 41.94652344 -30.86460937 41.95554687 -29.66796875 41.96484375 C-28.78753906 41.97644531 -27.90710938 41.98804688 -27 42 C-27.1111405 34.89626996 -30.35010121 31.78664655 -35.25 26.9375 C-36.58996341 25.57300932 -37.9285314 24.20714674 -39.265625 22.83984375 C-40.22178711 21.87087158 -40.22178711 21.87087158 -41.19726562 20.88232422 C-43.61151772 18.36148407 -45.81186869 15.71820188 -48 13 C-46.5000589 11.5000589 -45.05340395 11.68392349 -42.96484375 11.46484375 C-42.15595703 11.37783203 -41.34707031 11.29082031 -40.51367188 11.20117188 C-39.2384668 11.0706543 -39.2384668 11.0706543 -37.9375 10.9375 C-37.08349609 10.84662109 -36.22949219 10.75574219 -35.34960938 10.66210938 C-33.23348465 10.43749278 -31.11679106 10.21824773 -29 10 C-28.87625 11.82917969 -28.87625 11.82917969 -28.75 13.6953125 C-28.22388876 17.84757237 -26.99729687 19.86729585 -24 22.875 C-23.19691406 23.70773437 -22.39382812 24.54046875 -21.56640625 25.3984375 C-20.71949219 26.25695312 -19.87257812 27.11546875 -19 28 C-17.30175214 29.82338191 -15.61375781 31.65638206 -13.9375 33.5 C-13.18339844 34.3146875 -12.42929688 35.129375 -11.65234375 35.96875 C-10 38 -10 38 -10 40 C-5.05 39.67 -0.1 39.34 5 39 C-4.65119449 28.12325701 -14.33183504 18.6384096 -26 10 C-23.62688155 7.62688155 -22.01215691 7.24395459 -18.80859375 6.30859375 C-17.78185547 6.00373047 -16.75511719 5.69886719 -15.69726562 5.38476562 C-14.62154297 5.07216797 -13.54582031 4.75957031 -12.4375 4.4375 C-10.31038361 3.81396916 -8.18403531 3.18780995 -6.05859375 2.55859375 C-5.11298584 2.28329834 -4.16737793 2.00800293 -3.19311523 1.72436523 C-1.048384 1.19827184 -1.048384 1.19827184 0 0 Z " fill="#2C2E26" transform="translate(252,390)"/>
<path d="M0 0 C0.73476562 0.65871094 1.46953125 1.31742187 2.2265625 1.99609375 C18.42816185 15.38941588 40.82907631 23.21998728 61.8515625 21.43359375 C65.28857519 20.67128196 68.56118124 19.68141328 71.8515625 18.43359375 C66.28700889 30.44732232 57.17910771 39.20979969 45.16015625 44.65234375 C41.45559697 45.97060537 38.84147641 46.43359375 34.8515625 46.43359375 C34.4184375 45.64984375 33.9853125 44.86609375 33.5390625 44.05859375 C31.58090048 41.01256393 30.35466615 40.736182 26.9296875 39.9375 C14.65832866 36.96192615 6.26789741 29.78791665 -1.26171875 19.90625 C-3.1081342 17.48641361 -5.02896965 15.16987216 -7.0234375 12.87109375 C-7.85488281 11.91009766 -7.85488281 11.91009766 -8.703125 10.9296875 C-11.30104547 8.24048874 -13.66809051 8.19465053 -17.2734375 7.87109375 C-18.18351563 7.78730469 -19.09359375 7.70351563 -20.03125 7.6171875 C-21.07925781 7.52630859 -21.07925781 7.52630859 -22.1484375 7.43359375 C-16.34898551 1.1701856 -8.42668006 -6.14381582 0 0 Z " fill="#FBE7BB" transform="translate(209.1484375,298.56640625)"/>
<path d="M0 0 C34.85165495 -0.95881387 80.25480238 2.79121629 111 21 C112.1574707 23.09326172 112.1574707 23.09326172 113 25 C112.38930664 24.91959473 111.77861328 24.83918945 111.14941406 24.75634766 C86.62022289 21.56855325 62.35154535 19.82236447 37.625 19.75 C36.70366272 19.74473297 35.78232544 19.73946594 34.83306885 19.73403931 C24.94567634 19.69023901 15.59254213 20.06748047 5.82861328 21.6796875 C1.96965646 22.11667622 -0.30727757 21.60429954 -3.875 20.125 C-4.86242187 19.73570312 -5.84984375 19.34640625 -6.8671875 18.9453125 C-7.57101562 18.63335937 -8.27484375 18.32140625 -9 18 C-9 12.88980204 -7.41372457 11.6518914 -4 8 C-3.01 7.34 -2.02 6.68 -1 6 C-0.26656572 2.93443402 -0.26656572 2.93443402 0 0 Z " fill="#343530" transform="translate(334,150)"/>
<path d="M0 0 C1.99676953 1.98023313 3.95560967 3.94948686 5.8125 6.0625 C11.63108236 11.21610152 17.52637398 11.40729765 24.9375 11.1875 C25.81212891 11.17396484 26.68675781 11.16042969 27.58789062 11.14648438 C29.72553086 11.11144109 31.86284984 11.05764541 34 11 C32.8553125 12.11375 32.8553125 12.11375 31.6875 13.25 C29.05328185 15.79208715 29.05328185 15.79208715 27.4765625 18.19921875 C25.62455001 20.45789007 24.13527295 20.92307872 21.375 21.8125 C15.67346786 23.94437723 11.57495402 27.04391819 7 31 C6.1853125 31.68191406 5.370625 32.36382812 4.53125 33.06640625 C-1.22234153 38.02976684 -6.02222519 43.38783854 -10.70166016 49.36035156 C-12.16019181 51.20230316 -13.64588575 53.02003565 -15.13671875 54.8359375 C-21.62937891 62.74768054 -27.94900409 70.74437767 -34 79 C-35.07451435 75.76920897 -34.9451732 74.02130451 -33.734375 70.859375 C-33.42693359 70.04815186 -33.11949219 69.23692871 -32.80273438 68.40112305 C-32.45533203 67.52625244 -32.10792969 66.65138184 -31.75 65.75 C-31.39228516 64.8319458 -31.03457031 63.9138916 -30.66601562 62.96801758 C-22.0611261 41.26404644 -11.82548225 20.12848042 0 0 Z " fill="#DE7324" transform="translate(162,287)"/>
<path d="M0 0 C-0.03520471 8.11468658 -2.29081294 14.37184678 -7 21 C-9.1975354 23.11563967 -10.41642329 23.91021897 -13.4375 24.375 C-19.13906337 23.54062487 -24.03956678 19.23053735 -27.7578125 15 C-30.69298812 10.70625738 -31.83017349 7.29235602 -31 2 C-24.47287102 -7.46433703 -8.91930385 -3.00289188 0 0 Z " fill="#2C2F28" transform="translate(192,75)"/>
<path d="M0 0 C4.36001336 1.79215273 8.6440516 3.6440516 12 7 C12.72213361 12.86286695 11.14124103 16.19855833 7.6875 20.75 C7.28337891 21.31332031 6.87925781 21.87664062 6.46289062 22.45703125 C1.1169569 29.81094984 1.1169569 29.81094984 -2.515625 30.42578125 C-5 30 -5 30 -6.484375 28.35546875 C-6.90203125 27.64003906 -7.3196875 26.92460937 -7.75 26.1875 C-10.98733022 21.39930216 -14.48094112 20.17739923 -20 19 C-9.33333333 -1 -9.33333333 -1 0 0 Z " fill="#FBE9BD" transform="translate(125,437)"/>
<path d="M0 0 C19.34639576 -0.53224424 38.05468675 0.98356266 57 5 C57 5.66 57 6.32 57 7 C57.69867188 7.13277344 58.39734375 7.26554688 59.1171875 7.40234375 C60.02726562 7.57894531 60.93734375 7.75554687 61.875 7.9375 C62.77992188 8.11152344 63.68484375 8.28554687 64.6171875 8.46484375 C67 9 67 9 69 10 C71.00739994 10.22304444 73.01533957 10.44433824 75.02734375 10.62109375 C77 11 77 11 80 13 C79.01 13 78.02 13 77 13 C77 13.66 77 14.32 77 15 C70.20947257 15.17046217 63.77041653 14.71089048 57.0625 13.6875 C38.11782293 10.9647351 19.13408009 8.72534421 0 8 C0 5.36 0 2.72 0 0 Z " fill="#52524E" transform="translate(334,150)"/>
<path d="M0 0 C5.96771461 2.5645704 12.14898104 5.63608073 16 11 C16.07929727 14.17189089 15.13336329 15.76806385 13.5625 18.5 C8.99324079 22.95781387 3.11115743 26.12991022 -3.3125 26.8125 C-7.36142873 25.92036316 -7.72538789 25.64015426 -9.875 22.375 C-12.89639272 16.58654055 -14.60159916 11.61759071 -14 5 C-10.76278044 -1.76873182 -6.91668574 -1.66531725 0 0 Z " fill="#2B2E26" transform="translate(238,16)"/>
<path d="M0 0 C5.20998986 1.544726 10.14191114 3.57095557 15 6 C14.41981249 13.25234388 11.87225877 17.43672858 6.625 22.3125 C3.44595012 24.86250384 1.21832726 26.35152727 -3 26 C-9.18777265 22.61078816 -13.1911786 16.29494725 -16 10 C-16.83121525 4.18149325 -16.83121525 4.18149325 -14.83203125 1.33984375 C-10.70849316 -1.67587814 -4.81941557 -0.57337098 0 0 Z " fill="#2B2F27" transform="translate(198,39)"/>
<path d="M0 0 C7.23069114 4.14828495 11.47121963 10.20682945 16 17 C15.9296875 19.01953125 15.9296875 19.01953125 15 21 C12.8203125 22.44921875 12.8203125 22.44921875 10.125 23.6875 C9.24070312 24.10386719 8.35640625 24.52023438 7.4453125 24.94921875 C4.00871472 26.42596764 1.22027878 27.17559442 -2.5 27.25 C-3.2734375 27.27578125 -4.046875 27.3015625 -4.84375 27.328125 C-7 27 -7 27 -8.71875 25.796875 C-11.58813836 21.77273279 -11.18828715 16.77246006 -11.25 12 C-11.27578125 10.80375 -11.3015625 9.6075 -11.328125 8.375 C-10.97403478 4.73292919 -10.19167086 2.89385666 -8 0 C-4.93256346 -1.53371827 -3.29840304 -0.91622307 0 0 Z " fill="#2C2F27" transform="translate(288,17)"/>
<path d="M0 0 C0.36572725 8.24918127 0.28626372 13.99236004 -4.3125 21 C-6 22 -6 22 -8.6875 22.0625 C-14.80706997 20.09961906 -20.79120151 15.61539736 -24 10 C-24.61398969 6.41486481 -24.80316185 3.18561987 -22.6875 0.0625 C-16.4378695 -3.87245253 -6.48212801 -2.88094578 0 0 Z " fill="#2B2E27" transform="translate(188,110)"/>
<path d="M0 0 C6.51494091 1.95448227 9.01749676 7.57724841 12.125 13.3125 C13.54082845 16.35921944 14.61790265 18.74982302 13.75 22.125 C9.74347226 25.22537847 6.61215611 25.50632487 1.625 25.4375 C-0.20417969 25.43169922 -0.20417969 25.43169922 -2.0703125 25.42578125 C-5.25 25.125 -5.25 25.125 -8.25 23.125 C-9.32461206 15.68699885 -8.54573986 8.84323894 -5.25 2.125 C-3.25 0.125 -3.25 0.125 0 0 Z " fill="#2A2E26" transform="translate(323.25,35.875)"/>
<path d="M0 0 C4.63604002 1.47903515 7.90199956 4.15239417 11.5 7.3125 C12.10295898 7.83650391 12.70591797 8.36050781 13.32714844 8.90039062 C17.76311978 12.80293699 22.05029502 16.84488419 26.25 21 C27.07274414 21.80884644 27.07274414 21.80884644 27.91210938 22.6340332 C30.49064153 25.23339951 32.64598455 27.56542422 34 31 C20.15981274 32.68120066 20.15981274 32.68120066 15.21484375 28.83203125 C12.98101824 25.97572879 11.00055973 23.0227145 9 20 C6.94493133 17.798396 4.80753356 15.73364816 2.62890625 13.65625 C0.61090627 11.60437472 -0.89457569 9.91844226 -1.23046875 6.9921875 C-1.11111111 1.11111111 -1.11111111 1.11111111 0 0 Z " fill="#FAFAFA" transform="translate(224,399)"/>
<path d="M0 0 C3.47919003 3.10906343 4.84826979 4.91892228 5.5 9.5625 C4.97300076 13.18561975 4.22264703 15.11879089 2 18 C-1.75047482 20.50031654 -3.55856266 20.53603554 -8 20 C-10.9375 18.125 -10.9375 18.125 -13 15 C-13.92792784 10.0347721 -13.78147829 6.27641453 -11.125 1.9375 C-7.28036801 -1.56789975 -5.01830187 -1.27583946 0 0 Z " fill="#2B302A" transform="translate(303,147)"/>
<path d="M0 0 C3.22190891 3.22190891 4.14567203 6.58690733 4.1875 11.0625 C4 15 4 15 2 17 C-3.97496094 17.50635262 -7.66553 16.667235 -13 14 C-13.42004622 7.90932974 -13.0566405 4.89183119 -9 0 C-5.8168485 -1.59157575 -3.38676935 -0.77242108 0 0 Z " fill="#2A2E26" transform="translate(352,73)"/>
<path d="M0 0 C8.25541016 0.47611383 15.96477382 2.31805844 23.9375 4.4375 C25.7637793 4.90639648 25.7637793 4.90639648 27.62695312 5.38476562 C38.43422828 8.21681058 38.43422828 8.21681058 43 13 C35.27577951 12.33742578 27.65199697 11.23535374 20 10 C20 8.68 20 7.36 20 6 C19.443125 5.96261719 18.88625 5.92523438 18.3125 5.88671875 C11.47636306 5.29779479 5.79665686 3.8644379 0 0 Z " fill="#494843" transform="translate(391,156)"/>
<path d="M0 0 C0.33 0.66 0.66 1.32 1 2 C2.30878616 1.99555878 3.61757233 1.99111755 4.96601868 1.98654175 C17.28248762 1.94604979 29.59894311 1.91604165 41.91546345 1.89637566 C48.24795105 1.88592541 54.58038505 1.87174356 60.9128418 1.84912109 C67.02065243 1.82743699 73.12841141 1.81544073 79.23625755 1.81024551 C81.56992596 1.80654178 83.90359144 1.79930962 86.23723793 1.78853989 C89.4984721 1.77408397 92.75949106 1.77201959 96.02075195 1.77294922 C96.99179367 1.76575867 97.96283539 1.75856812 98.96330261 1.75115967 C100.29471786 1.75528366 100.29471786 1.75528366 101.6530304 1.75949097 C102.81034149 1.75672559 102.81034149 1.75672559 103.9910326 1.75390434 C106 2 106 2 109 4 C107.71262436 3.99777939 106.42524872 3.99555878 105.09886169 3.99327087 C92.96022324 3.97298975 80.82158823 3.95800388 68.68293667 3.94818783 C62.44250723 3.94297165 56.20209148 3.93589693 49.96166992 3.92456055 C43.93813505 3.91368678 37.91461334 3.90771362 31.89106941 3.90512276 C29.59420629 3.90327661 27.29734388 3.89967158 25.00048637 3.89426994 C21.78082605 3.88699998 18.56121996 3.88601158 15.34155273 3.88647461 C14.39424286 3.88287933 13.44693298 3.87928406 12.47091675 3.87557983 C7.53708474 3.88324617 2.86389822 4.15987047 -2 5 C-1.34 3.35 -0.68 1.7 0 0 Z " fill="#010200" transform="translate(202,438)"/>
<path d="M0 0 C6.02770138 0.47587116 10.76678289 3.19722957 16 6 C16 6.99 16 7.98 16 9 C6.43 7.68 -3.14 6.36 -13 5 C-11.68 4.34 -10.36 3.68 -9 3 C-10.32 2.34 -11.64 1.68 -13 1 C-7.88208358 0.89337674 -3.07071901 1.28832014 2 2 C1.34 1.34 0.68 0.68 0 0 Z " fill="#262621" transform="translate(430,166)"/>
<path d="M0 0 C0.99 0.33 1.98 0.66 3 1 C2.37990682 4.0500277 1.38363018 6.27126402 -0.28515625 8.890625 C-0.95708008 9.95410156 -0.95708008 9.95410156 -1.64257812 11.0390625 C-2.11115234 11.76867187 -2.57972656 12.49828125 -3.0625 13.25 C-3.53494141 13.99507813 -4.00738281 14.74015625 -4.49414062 15.5078125 C-5.65790906 17.34162943 -6.82831288 19.17123244 -8 21 C-11.3 20.34 -14.6 19.68 -18 19 C-17.67 18.34 -17.34 17.68 -17 17 C-16.2471875 17.0825 -15.494375 17.165 -14.71875 17.25 C-11.9208493 17.2690775 -11.9208493 17.2690775 -10.15625 15.3125 C-9.6096875 14.549375 -9.063125 13.78625 -8.5 13 C-7.91089844 12.18660156 -7.32179687 11.37320312 -6.71484375 10.53515625 C-4.37775068 7.08009155 -2.12312857 3.59072897 0 0 Z " fill="#161B15" transform="translate(137,449)"/>
<path d="M0 0 C0 3.91400006 -1.30306075 4.99937377 -3.75 8 C-4.44609375 8.86625 -5.1421875 9.7325 -5.859375 10.625 C-7.78368063 12.75999603 -9.6372883 14.38228749 -12 16 C-12 15.34 -12 14.68 -12 14 C-13.98 14.99 -13.98 14.99 -16 16 C-14.55004052 12.45651614 -12.76038872 10.79873666 -9.6875 8.5625 C-6.14562555 5.91180686 -3.02544908 3.22063934 0 0 Z " fill="#1F2528" transform="translate(175,362)"/>
<path d="M0 0 C8.68518048 0.40871438 16.69293749 2.61864208 25 5 C25 5.33 25 5.66 25 6 C15.69254706 5.6209043 7.91702029 5.27801353 0 0 Z " fill="#2E2E29" transform="translate(391,156)"/>
<path d="M0 0 C0.33 0.66 0.66 1.32 1 2 C10.57 2 20.14 2 30 2 C30 2.33 30 2.66 30 3 C29.2793335 3.02505615 28.55866699 3.0501123 27.81616211 3.07592773 C24.52312536 3.19260076 21.23032499 3.31500179 17.9375 3.4375 C16.80376953 3.47681641 15.67003906 3.51613281 14.50195312 3.55664062 C8.93261605 3.76772337 3.49489474 4.05095432 -2 5 C-1.34 3.35 -0.68 1.7 0 0 Z " fill="#080905" transform="translate(202,438)"/>
<path d="M0 0 C0.84062397 3.09773244 1.08935201 5.78332751 1 9 C0.0409375 9.2784375 0.0409375 9.2784375 -0.9375 9.5625 C-1.618125 10.036875 -2.29875 10.51125 -3 11 C-3.40729228 13.32156597 -3.74438677 15.6568787 -4 18 C-4.66 18.33 -5.32 18.66 -6 19 C-5.52877252 12.0886636 -2.79363994 6.27795839 0 0 Z " fill="#DD6618" transform="translate(133,347)"/>
<path d="M0 0 C0.66 0.66 1.32 1.32 2 2 C3.98 1.34 5.96 0.68 8 0 C5.50175511 2.81158409 2.721524 4.44837831 -0.5625 6.25 C-2.01849609 7.06210937 -2.01849609 7.06210937 -3.50390625 7.890625 C-4.32761719 8.25671875 -5.15132813 8.6228125 -6 9 C-6.66 8.67 -7.32 8.34 -8 8 C-5.36 5.36 -2.72 2.72 0 0 Z " fill="#E88D25" transform="translate(117,397)"/>
<path d="M0 0 C2.22909871 -0.02714735 4.45829367 -0.04646254 6.6875 -0.0625 C7.92886719 -0.07410156 9.17023438 -0.08570313 10.44921875 -0.09765625 C13.46235454 -0.01478673 16.08275339 0.29160551 19 1 C19 1.33 19 1.66 19 2 C16.20882755 2.24803781 13.41884926 2.47414334 10.625 2.6875 C9.43390625 2.79674805 9.43390625 2.79674805 8.21875 2.90820312 C5.9140625 3.07421875 5.9140625 3.07421875 2 3 C1.34 2.01 0.68 1.02 0 0 Z " fill="#41413B" transform="translate(407,168)"/>
<path d="M0 0 C2.96528179 -0.0562279 5.68850026 0.04316196 8.625 0.3125 C9.42679688 0.37373047 10.22859375 0.43496094 11.0546875 0.49804688 C13.03758124 0.65148508 15.01898519 0.82395693 17 1 C17 1.33 17 1.66 17 2 C12.64667264 2.84023188 8.55557481 3.10770995 4.125 3.0625 C2.97257813 3.05347656 1.82015625 3.04445313 0.6328125 3.03515625 C-0.23601562 3.02355469 -1.10484375 3.01195312 -2 3 C-1.34 2.01 -0.68 1.02 0 0 Z " fill="#E17115" transform="translate(173,402)"/>
<path d="M0 0 C-2.63904371 1.41377341 -5.07120629 2.37240135 -8 3 C-8.17835515 7.54805635 -7.99785435 10.8794254 -6 15 C-8.29996485 13.27502636 -9.81771456 11.95364066 -10.37109375 9.05859375 C-10.46382794 6.09655457 -10.34168478 3.64317134 -8.9375 1 C-5.97912322 -0.52690415 -3.26283401 -0.18468872 0 0 Z " fill="#11130E" transform="translate(174,109)"/>
<path d="M0 0 C3.77545388 1.09068668 6.47043472 1.9083091 9 5 C6.83125748 4.49396008 5.00032373 4.00016187 3 3 C2.34 4.32 1.68 5.64 1 7 C0.01 6.67 -0.98 6.34 -2 6 C-1.34 4.02 -0.68 2.04 0 0 Z " fill="#E5801F" transform="translate(213,46)"/>
<path d="M0 0 C-0.598125 0.12375 -1.19625 0.2475 -1.8125 0.375 C-4.26231348 0.95475985 -4.26231348 0.95475985 -7 3 C-9.6875 3.125 -9.6875 3.125 -12 3 C-12 2.01 -12 1.02 -12 0 C-7.44729118 -2.48329572 -4.775353 -1.68541871 0 0 Z " fill="#3E3D39" transform="translate(423,163)"/>
<path d="M0 0 C-0.33 0.66 -0.66 1.32 -1 2 C-3.32671854 2.68939809 -5.66067594 3.35466922 -8 4 C-8.99 4.66 -9.98 5.32 -11 6 C-10.39816251 3.97954558 -9.72693904 1.97888961 -9 0 C-5.93109813 -1.53445094 -3.29905734 -0.54984289 0 0 Z " fill="#38362B" transform="translate(303,147)"/>
<path d="M0 0 C3.96 0 7.92 0 12 0 C12.33 0.99 12.66 1.98 13 3 C8.71 3 4.42 3 0 3 C0 2.01 0 1.02 0 0 Z " fill="#393C34" transform="translate(170,108)"/>
<path d="M0 0 C0.66 0.33 1.32 0.66 2 1 C0.18834867 5.16679806 -0.82697197 7.19168785 -5 9 C-5.33 9.99 -5.66 10.98 -6 12 C-6.33 11.34 -6.66 10.68 -7 10 C-3.535 5.05 -3.535 5.05 0 0 Z " fill="#1E201B" transform="translate(117,380)"/>
<path d="M0 0 C1.485 0.99 1.485 0.99 3 2 C3.328125 3.875 3.328125 3.875 3.25 6 C3.23453125 6.70125 3.2190625 7.4025 3.203125 8.125 C3 10 3 10 2 12 C1.01 11.67 0.02 11.34 -1 11 C-0.67 7.37 -0.34 3.74 0 0 Z " fill="#D87F25" transform="translate(188,113)"/>
<path d="M0 0 C4.01076447 1.02840115 6.26388836 2.95987596 9 6 C4.61110675 5.33501617 1.0188515 3.81242323 -3 2 C-2.01 1.34 -1.02 0.68 0 0 Z " fill="#FBF1E3" transform="translate(213,80)"/>
<path d="M0 0 C-4.82029598 4.82029598 -4.82029598 4.82029598 -8.1796875 5.33203125 C-10.1228691 5.31474316 -12.06392229 5.16690325 -14 5 C-11.75043698 2.75043698 -9.93676737 1.99489035 -7 0.8125 C-6.113125 0.44769531 -5.22625 0.08289063 -4.3125 -0.29296875 C-2 -1 -2 -1 0 0 Z " fill="#252929" transform="translate(254,391)"/>
<path d="M0 0 C0.33 0 0.66 0 1 0 C1.66 4.29 2.32 8.58 3 13 C-2.16 6.12 -2.16 6.12 -1.6875 2.8125 C-1 1 -1 1 0 0 Z " fill="#FBEDDD" transform="translate(283,60)"/>
<path d="M0 0 C2.15473199 1.5801368 4.10646634 3.10646634 6 5 C6.33 4.34 6.66 3.68 7 3 C7 4.32 7 5.64 7 7 C7.2981424 8.34164079 7.62243192 9.67851173 8 11 C2.19794344 5.35475578 2.19794344 5.35475578 0 2 C0 1.34 0 0.68 0 0 Z " fill="#E57515" transform="translate(232,42)"/>
<path d="M0 0 C2.03144641 0.93446535 4.03533587 1.93224776 6 3 C6 3.99 6 4.98 6 6 C3.69 5.67 1.38 5.34 -1 5 C-1.33 3.68 -1.66 2.36 -2 1 C-1.34 0.67 -0.68 0.34 0 0 Z " fill="#3B3B35" transform="translate(440,169)"/>
<path d="M0 0 C0.6875 1.8125 0.6875 1.8125 1 4 C-0.86245982 6.54862922 -3.15616877 7.7251791 -6 9 C-4.47291037 5.56404834 -2.40072955 2.88087546 0 0 Z " fill="#1D2628" transform="translate(135,356)"/>
<path d="M0 0 C0.33 0.99 0.66 1.98 1 3 C-1.31 5.31 -3.62 7.62 -6 10 C-6 6.41087588 -5.33563446 5.89142971 -3 3.3125 C-2.443125 2.68988281 -1.88625 2.06726563 -1.3125 1.42578125 C-0.879375 0.95527344 -0.44625 0.48476563 0 0 Z " fill="#1C282A" transform="translate(151,336)"/>
<path d="M0 0 C2.64 0 5.28 0 8 0 C7.67 1.32 7.34 2.64 7 4 C5.68 3.67 4.36 3.34 3 3 C3 2.34 3 1.68 3 1 C2.01 0.67 1.02 0.34 0 0 Z " fill="#ED7F23" transform="translate(181,300)"/>
<path d="M0 0 C1.485 0.99 1.485 0.99 3 2 C3 2.66 3 3.32 3 4 C4.32 4.33 5.64 4.66 7 5 C6.01 5 5.02 5 4 5 C4 6.65 4 8.3 4 10 C1.04816899 7.04816899 0.91336012 4.04488053 0 0 Z " fill="#E6781A" transform="translate(278,41)"/>
<path d="M0 0 C0.99 0.33 1.98 0.66 3 1 C2.67 3.31 2.34 5.62 2 8 C1.34 8 0.68 8 0 8 C0 5.36 0 2.72 0 0 Z " fill="#172427" transform="translate(339,79)"/>
</svg>
